<mxfile host="app.diagrams.net" modified="2025-01-11T07:57:20.284Z" agent="Mozilla/5.0 (Windows NT 10.0; Win64; x64) AppleWebKit/537.36 (KHTML, like Gecko) Chrome/131.0.0.0 Safari/537.36 Edg/131.0.0.0" version="24.6.5" etag="8jKXTKArXpcV9GYEdNOB" type="github">
  <diagram name="第 1 页" id="JwUrUvTopVScbDmBD3JJ">
    <mxGraphModel>
      <root>
        <mxCell id="0" />
        <mxCell id="1" parent="0" />
      </root>
    </mxGraphModel>
  </diagram>
</mxfile>
